<svg id="svg" version="1.1" xmlns="http://www.w3.org/2000/svg" xmlns:xlink="http://www.w3.org/1999/xlink" width="400" height="243.72515869140625" viewBox="0, 0, 400,243.72515616127203"><g id="svgg">

<path id="path0" d="M79.841 51.891 C 76.662 52.717,71.560 54.590,71.277 55.036 C 70.998 55.475,71.069 55.877,71.427 55.877 C 71.827 55.877,75.450 57.417,79.155 59.162 C 82.588 60.778,82.794 60.751,82.973 58.664 C 83.045 57.818,83.385 55.866,83.728 54.326 C 84.558 50.593,84.641 50.645,79.841 51.891 M65.417 60.163 C 65.417 60.272,64.676 60.413,63.771 60.477 C 62.012 60.602,59.693 61.272,55.922 62.744 C 52.807 63.960,52.823 64.211,56.104 65.656 C 57.416 66.233,59.608 67.239,60.974 67.890 C 64.620 69.627,64.375 69.788,65.776 64.736 C 66.416 62.425,66.894 60.406,66.836 60.250 C 66.719 59.933,65.417 59.853,65.417 60.163 M47.359 70.741 C 43.551 71.707,38.387 73.610,38.387 74.047 C 38.387 74.380,39.192 74.832,41.681 75.893 C 42.930 76.425,45.066 77.409,46.426 78.079 C 49.773 79.727,50.033 79.686,50.253 77.477 C 50.345 76.551,50.677 74.728,50.991 73.427 C 51.947 69.460,52.065 69.547,47.359 70.741 M59.625 81.342 C 59.125 81.455,56.647 82.234,54.117 83.072 C 48.544 84.919,48.182 85.275,50.820 86.326 C 51.540 86.614,53.701 87.597,55.621 88.512 C 60.453 90.815,59.961 91.042,61.413 85.838 C 62.856 80.664,62.836 80.614,59.625 81.342 M37.365 83.967 C 33.966 84.706,26.652 87.102,26.044 87.675 C 25.651 88.046,26.375 88.771,27.647 89.281 C 28.370 89.571,30.543 90.561,32.477 91.480 C 36.606 93.443,36.837 93.454,37.328 91.709 C 39.536 83.864,39.483 84.146,38.785 83.959 C 38.238 83.813,38.073 83.814,37.365 83.967 M50.653 95.895 C 47.249 96.624,40.966 98.915,40.626 99.550 C 40.325 100.113,40.390 100.163,42.703 101.140 C 43.765 101.588,45.948 102.576,47.554 103.334 C 50.455 104.704,51.180 104.919,51.446 104.489 C 51.523 104.365,52.081 102.500,52.687 100.343 C 53.294 98.187,53.861 96.244,53.949 96.025 C 54.135 95.562,52.509 95.498,50.653 95.895 M30.324 100.617 C 28.105 101.199,21.925 103.383,21.612 103.696 C 21.348 103.959,22.272 104.509,24.872 105.634 C 26.371 106.283,28.593 107.313,29.808 107.922 C 31.784 108.911,33.387 109.330,33.392 108.859 C 33.404 107.766,33.976 104.160,34.407 102.464 C 34.708 101.280,34.902 100.228,34.840 100.127 C 34.620 99.771,32.796 99.969,30.324 100.617 M312.995 101.136 C 311.637 101.821,309.683 105.557,310.340 106.214 C 310.463 106.337,318.870 104.828,319.047 104.652 C 319.111 104.588,319.007 104.160,318.815 103.702 C 317.687 101.001,315.327 99.960,312.995 101.136 M288.700 103.957 C 284.755 105.659,283.776 111.250,287.412 111.313 C 288.633 111.334,300.054 109.158,300.056 108.904 C 300.058 108.456,297.802 106.134,296.640 105.389 C 294.038 103.719,290.663 103.110,288.700 103.957 M160.018 107.083 C 158.891 107.374,157.102 107.920,156.043 108.297 C 149.961 110.458,149.844 110.603,153.067 111.961 C 153.988 112.350,156.153 113.344,157.878 114.170 C 161.583 115.945,161.927 115.956,162.388 114.318 C 164.847 105.579,164.924 105.814,160.018 107.083 M179.432 107.670 C 171.773 109.673,168.483 111.388,170.755 112.192 C 171.224 112.357,173.464 113.357,175.734 114.413 C 181.163 116.940,180.629 117.153,182.123 111.868 C 183.531 106.890,183.529 106.902,183.078 106.847 C 182.890 106.824,181.250 107.194,179.432 107.670 M142.227 108.254 C 138.843 108.995,132.957 111.116,132.359 111.810 C 131.831 112.423,131.816 112.412,135.254 113.908 C 136.873 114.612,139.173 115.691,140.365 116.306 L 142.533 117.425 142.903 116.938 C 143.362 116.331,145.456 108.668,145.285 108.220 C 145.130 107.818,144.173 107.829,142.227 108.254 M200.227 110.318 C 196.495 111.148,190.220 113.334,189.719 113.979 C 189.274 114.552,189.406 114.661,191.826 115.710 C 193.074 116.251,195.304 117.269,196.781 117.972 C 200.544 119.762,200.624 119.738,200.876 116.752 C 200.955 115.815,201.273 114.037,201.583 112.802 C 202.270 110.059,202.175 109.885,200.227 110.318 M53.833 111.092 C 45.295 113.287,42.085 114.864,44.130 115.858 C 44.532 116.053,46.139 116.888,47.700 117.713 C 51.269 119.599,53.963 120.414,54.383 119.734 C 54.664 119.279,56.771 111.232,56.657 111.048 C 56.501 110.795,54.887 110.820,53.833 111.092 M121.384 112.206 C 119.996 112.568,117.564 113.343,115.979 113.927 C 111.700 115.502,111.533 115.836,114.424 117.029 C 115.517 117.480,117.769 118.493,119.429 119.278 L 122.448 120.707 123.404 120.376 L 124.361 120.045 124.517 118.326 C 124.603 117.381,124.938 115.561,125.262 114.284 C 126.070 111.095,125.926 111.018,121.384 112.206 M33.880 115.523 C 31.930 115.950,29.899 116.582,26.917 117.693 C 22.577 119.308,22.573 119.298,28.707 122.080 C 35.146 125.001,34.536 125.175,35.955 120.009 C 37.401 114.745,37.404 114.751,33.880 115.523 M102.708 116.303 C 101.668 116.541,99.589 117.153,98.089 117.664 C 92.002 119.735,91.715 120.099,95.060 121.505 C 96.184 121.977,98.413 122.987,100.012 123.750 C 103.647 125.482,103.896 125.451,104.102 123.243 C 104.179 122.419,104.610 120.699,105.061 119.419 C 106.410 115.582,106.330 115.476,102.708 116.303 M217.036 116.793 C 214.419 117.419,209.068 119.176,207.609 119.889 C 205.786 120.780,205.908 121.133,208.404 122.188 C 209.529 122.664,211.776 123.684,213.399 124.456 C 217.368 126.344,217.036 126.546,218.480 121.358 C 219.133 119.012,219.726 116.914,219.798 116.695 C 219.963 116.190,219.485 116.207,217.036 116.793 M82.340 122.310 C 81.215 122.599,79.426 123.143,78.365 123.520 C 71.896 125.813,71.910 125.789,75.980 127.543 C 77.354 128.135,79.473 129.118,80.689 129.727 C 81.904 130.336,83.192 130.835,83.551 130.835 L 84.202 130.835 85.387 126.522 C 86.039 124.150,86.508 122.106,86.430 121.979 C 86.202 121.610,84.542 121.744,82.340 122.310 M160.096 123.001 C 160.039 123.058,158.729 123.423,157.185 123.811 C 155.641 124.200,153.047 125.020,151.420 125.634 C 147.473 127.124,147.258 127.463,149.631 128.454 C 150.474 128.806,152.713 129.831,154.606 130.732 C 159.072 132.858,159.047 132.862,159.398 129.966 C 159.545 128.757,159.873 126.960,160.127 125.972 C 160.706 123.727,160.692 122.405,160.096 123.001 M63.941 123.659 C 61.632 124.227,58.845 125.127,56.333 126.116 C 53.531 127.218,53.581 127.494,56.843 128.899 C 58.248 129.504,60.498 130.547,61.843 131.216 C 65.022 132.797,65.328 132.749,65.532 130.644 C 65.736 128.544,66.227 126.651,66.992 125.009 C 67.965 122.921,67.597 122.758,63.941 123.659 M178.989 123.783 C 178.802 123.886,177.868 124.131,176.914 124.326 C 174.837 124.751,170.054 126.332,168.313 127.168 C 166.484 128.047,166.567 128.345,168.928 129.358 C 170.026 129.830,172.305 130.871,173.991 131.672 C 177.938 133.546,178.294 133.450,178.305 130.501 C 178.307 130.130,178.626 128.511,179.015 126.903 C 179.703 124.056,179.698 123.391,178.989 123.783 M138.202 125.050 C 136.658 125.389,132.111 126.884,130.055 127.729 C 128.615 128.320,127.977 129.131,128.738 129.402 C 129.673 129.735,134.959 132.102,136.565 132.908 C 139.393 134.325,139.536 134.253,139.793 131.289 C 139.864 130.477,140.177 128.756,140.490 127.465 C 141.230 124.412,141.209 124.390,138.202 125.050 M194.321 127.417 C 191.356 128.173,186.082 130.051,185.520 130.552 C 184.821 131.173,185.073 131.417,187.450 132.419 C 188.731 132.960,190.981 134.001,192.451 134.734 C 196.309 136.657,196.035 136.884,197.727 130.354 C 198.781 126.286,198.775 126.281,194.321 127.417 M116.820 129.701 C 109.942 131.499,106.789 133.226,108.972 133.998 C 109.441 134.163,111.681 135.163,113.951 136.219 C 119.378 138.745,118.860 138.943,120.290 133.788 C 120.931 131.476,121.408 129.458,121.351 129.302 C 121.181 128.842,119.561 128.985,116.820 129.701 M42.362 131.053 C 40.988 131.405,38.842 132.071,37.592 132.533 C 36.343 132.995,34.978 133.486,34.558 133.626 C 33.889 133.848,32.948 134.802,33.189 135.015 C 33.237 135.057,34.401 135.578,35.775 136.172 C 37.149 136.766,39.374 137.803,40.719 138.476 C 44.345 140.292,44.131 140.492,45.917 133.598 C 46.869 129.920,46.848 129.905,42.362 131.053 M98.807 134.382 C 95.111 135.189,88.947 137.430,88.590 138.097 C 88.332 138.578,88.536 138.785,89.722 139.242 C 90.159 139.411,92.328 140.390,94.543 141.419 C 99.626 143.779,99.536 143.792,99.812 140.656 C 99.921 139.416,100.812 135.429,101.215 134.380 C 101.388 133.929,100.885 133.929,98.807 134.382 M80.863 139.008 C 80.676 139.115,79.429 139.464,78.092 139.782 C 75.333 140.438,69.585 142.470,69.091 142.964 C 68.587 143.468,68.900 143.891,70.108 144.339 C 70.714 144.564,72.895 145.558,74.954 146.547 C 80.187 149.059,79.597 149.512,81.773 141.316 C 82.339 139.184,82.009 138.348,80.863 139.008 M156.368 139.678 C 156.254 139.784,155.037 140.147,153.663 140.484 C 151.209 141.086,145.305 143.154,144.747 143.607 C 144.182 144.066,144.488 144.499,145.769 145.057 C 146.488 145.369,148.723 146.395,150.737 147.335 C 155.436 149.529,155.381 149.536,155.734 146.735 C 155.883 145.548,156.220 143.742,156.481 142.722 C 157.117 140.238,157.072 139.019,156.368 139.678 M58.671 140.604 C 56.149 141.263,50.802 143.174,50.256 143.610 C 49.680 144.071,49.967 144.574,51.051 145.010 C 51.644 145.247,53.883 146.252,56.027 147.243 C 61.152 149.611,60.766 149.733,61.908 145.372 C 62.415 143.436,62.937 141.545,63.067 141.170 C 63.582 139.686,62.645 139.565,58.671 140.604 M172.611 141.182 C 169.319 142.050,164.132 143.908,163.647 144.393 C 163.040 144.999,163.302 145.260,165.417 146.153 C 166.573 146.642,168.765 147.637,170.290 148.364 C 172.755 149.542,174.443 150.010,174.448 149.517 C 174.460 148.409,175.036 144.806,175.483 143.044 C 176.004 140.988,176.039 140.331,175.625 140.402 C 175.539 140.416,174.183 140.767,172.611 141.182 M134.469 141.651 C 130.571 142.501,124.614 144.687,124.228 145.409 C 123.927 145.970,123.686 145.801,126.558 147.044 C 127.891 147.621,130.132 148.658,131.538 149.348 C 133.828 150.472,134.610 150.673,135.096 150.263 C 135.170 150.200,137.422 142.158,137.422 141.957 C 137.422 141.795,136.358 141.270,136.105 141.306 C 136.017 141.319,135.281 141.474,134.469 141.651 M114.480 146.082 C 112.115 146.623,107.539 148.155,105.849 148.971 C 104.156 149.789,104.163 150.286,105.878 150.951 C 106.581 151.223,108.797 152.239,110.801 153.208 C 115.528 155.493,115.387 155.522,116.058 152.133 C 116.337 150.726,116.833 148.776,117.161 147.800 C 117.976 145.374,117.870 145.306,114.480 146.082 M94.605 151.958 C 90.881 152.807,85.472 154.839,84.986 155.571 C 84.686 156.022,84.730 156.075,85.776 156.526 C 86.384 156.789,88.620 157.811,90.744 158.798 C 95.967 161.224,95.906 161.232,96.181 158.114 C 96.295 156.824,97.155 152.969,97.567 151.902 C 97.767 151.384,97.061 151.397,94.605 151.958 " stroke="none" fill="#f9faf9" fill-rule="evenodd" class="svg-elem-1">
</path>
<path id="path1" d="M238.788 0.677 C 238.384 0.923,237.015 2.533,235.745 4.254 C 229.521 12.688,225.951 14.466,222.601 10.800 C 221.314 9.391,219.428 9.116,217.947 10.121 C 216.935 10.808,217.120 10.619,214.477 13.655 C 210.759 17.927,209.724 18.286,207.382 16.122 C 203.861 12.868,202.174 13.192,197.125 18.092 C 191.786 23.274,189.620 23.837,186.738 20.790 C 183.782 17.664,183.251 17.711,178.924 21.491 C 174.433 25.415,172.293 26.715,170.511 26.602 C 170.284 26.588,169.243 25.758,168.200 24.759 C 165.089 21.780,163.769 22.127,157.891 27.473 C 151.672 33.129,149.381 33.618,147.552 29.678 C 145.287 24.798,142.674 25.036,136.595 30.672 C 133.800 33.263,130.284 35.235,128.408 35.264 C 127.009 35.286,126.414 34.760,125.279 32.500 C 123.280 28.520,120.997 28.474,115.983 32.312 C 109.593 37.203,108.045 38.160,106.516 38.160 C 105.463 38.160,104.445 37.372,103.763 36.030 C 101.590 31.750,97.542 32.789,90.797 39.360 C 86.973 43.086,85.599 43.366,83.934 40.763 C 81.418 36.830,79.023 37.891,71.268 46.376 C 67.921 50.037,67.220 50.174,63.314 47.933 C 59.517 45.755,59.134 45.997,52.904 54.514 C 48.401 60.671,47.274 61.239,43.708 59.149 C 40.523 57.282,36.535 61.084,32.486 69.847 C 30.073 75.070,29.780 75.587,28.936 76.109 L 28.101 76.624 26.001 76.211 C 21.907 75.406,21.957 75.369,17.218 82.680 C 14.222 87.301,13.821 87.959,11.822 91.539 C 4.553 104.554,1.365 115.971,0.425 132.349 C -0.801 153.718,6.041 175.726,17.188 186.272 L 18.764 187.762 18.106 189.338 C 12.788 202.078,11.902 213.080,15.601 220.443 C 21.393 231.973,28.022 236.751,31.170 231.665 C 31.511 231.115,32.100 229.800,32.480 228.745 C 33.986 224.558,34.698 224.414,39.283 227.371 C 44.941 231.021,46.101 230.522,46.898 224.095 C 47.628 218.212,49.299 217.632,54.893 221.317 C 59.286 224.211,60.800 223.049,62.244 215.673 C 64.863 202.290,60.387 196.843,46.756 196.826 C 43.695 196.822,42.110 196.741,42.195 196.593 C 42.266 196.468,42.605 195.957,42.948 195.457 C 51.854 182.467,52.432 173.934,44.917 166.414 C 43.436 164.932,42.273 163.671,42.331 163.612 C 43.657 162.287,47.869 164.131,51.221 167.505 C 56.649 172.969,57.289 180.331,53.138 189.582 C 52.282 191.489,52.252 191.394,53.776 191.571 C 59.156 192.193,63.615 194.802,66.506 199.019 C 66.907 199.603,67.235 200.179,67.235 200.297 C 67.235 202.579,107.430 204.852,120.159 203.289 C 124.837 202.715,127.440 200.812,133.461 193.565 C 134.758 192.003,140.961 186.877,143.214 185.504 C 146.366 183.583,149.722 183.088,152.029 184.203 L 153.122 184.731 150.553 186.083 C 140.966 191.130,136.175 198.227,136.173 207.382 C 136.172 214.188,137.563 216.845,143.925 222.187 C 148.172 225.753,149.731 228.635,152.511 238.065 C 154.632 245.258,159.594 245.820,161.064 239.034 C 162.492 232.439,163.791 231.917,167.754 236.345 C 172.295 241.418,175.552 239.851,175.578 232.580 C 175.597 227.072,178.377 226.423,183.201 230.801 C 187.904 235.069,190.092 233.870,190.115 227.015 C 190.132 221.635,193.184 220.757,197.676 224.838 C 203.277 229.927,206.892 218.924,201.745 212.452 C 199.324 209.407,194.090 207.194,185.173 205.447 C 180.973 204.623,179.429 203.894,178.635 202.359 C 178.137 201.395,178.275 200.206,178.876 200.293 C 180.578 200.541,204.823 200.593,209.426 200.359 C 238.158 198.898,261.332 193.084,276.723 183.474 L 277.806 182.797 282.515 183.735 C 303.312 187.877,332.784 190.111,362.866 189.823 C 378.344 189.675,382.286 189.250,389.211 186.982 C 394.141 185.367,396.045 183.960,398.208 180.331 C 402.454 173.209,399.317 167.938,389.829 166.252 C 385.660 165.510,384.121 164.541,382.283 161.499 C 380.336 158.278,379.015 158.176,375.123 160.945 C 372.373 162.903,371.505 162.361,369.697 157.556 C 368.405 154.125,367.353 153.930,363.430 156.397 C 360.068 158.511,359.417 158.233,357.650 153.925 C 355.810 149.439,354.886 149.155,350.934 151.861 C 347.565 154.168,346.988 153.907,345.625 149.461 C 344.237 144.935,343.508 144.796,337.876 147.975 C 334.015 150.154,328.192 148.379,321.533 142.993 C 318.413 140.469,317.906 140.396,318.039 142.490 C 318.421 148.474,324.627 151.996,345.940 158.324 C 374.148 166.700,380.942 169.832,380.143 174.092 C 379.236 178.923,371.800 178.629,367.317 173.584 C 364.746 170.691,363.824 170.719,359.750 173.813 C 358.713 174.601,357.432 175.438,356.903 175.673 L 355.942 176.102 355.051 175.512 C 354.312 175.023,353.883 174.377,352.546 171.743 C 350.127 166.974,349.147 166.743,344.319 169.799 C 340.325 172.327,339.931 172.197,338.073 167.732 C 335.897 162.502,334.825 162.253,329.813 165.814 C 325.794 168.668,325.433 168.550,322.880 163.543 C 320.723 159.313,319.647 158.917,314.849 160.580 C 309.113 162.568,307.737 162.432,303.761 159.483 C 301.237 157.611,296.611 153.564,295.644 152.381 C 286.417 141.094,281.042 138.934,267.462 141.054 C 257.928 142.542,254.720 141.885,252.782 138.047 C 252.051 136.598,251.627 134.242,252.098 134.242 C 252.240 134.242,252.357 134.055,252.357 133.825 C 252.357 133.144,252.511 133.136,254.746 133.704 C 260.280 135.109,263.669 134.848,270.074 132.523 C 277.717 129.749,281.939 129.752,291.766 132.536 C 297.367 134.123,298.487 134.322,301.760 134.315 C 305.398 134.308,311.464 133.043,312.568 132.062 C 313.066 131.619,313.403 131.664,313.572 132.198 C 313.673 132.517,313.916 132.652,314.389 132.652 C 315.384 132.652,316.310 133.106,318.729 134.781 C 324.645 138.877,326.285 138.809,327.752 134.405 C 329.421 129.394,331.301 128.127,334.509 129.849 C 335.362 130.307,336.877 131.122,337.876 131.660 C 340.995 133.340,341.846 132.998,342.984 129.610 C 345.013 123.572,346.495 122.839,351.202 125.549 C 355.948 128.281,356.878 128.255,357.946 125.359 C 359.551 121.007,360.237 119.848,361.635 119.125 C 362.869 118.487,362.882 118.492,368.541 121.557 C 371.527 123.175,372.455 122.779,373.542 119.423 C 375.430 113.589,377.170 112.653,381.427 115.179 C 387.255 118.637,388.179 118.318,390.029 112.209 C 390.746 109.845,391.007 109.275,391.591 108.802 C 398.705 103.041,399.927 95.963,394.321 92.984 C 393.106 92.338,387.517 92.400,384.554 93.093 C 383.367 93.370,379.943 94.112,376.945 94.741 C 371.208 95.944,346.278 101.473,333.560 104.361 C 326.933 105.867,326.038 106.023,325.838 105.708 C 321.557 98.994,319.225 97.691,313.685 98.917 C 307.893 100.199,306.672 100.393,304.373 100.392 C 302.012 100.392,301.473 100.304,295.060 98.884 C 285.522 96.772,276.844 99.357,267.658 107.048 L 265.356 108.976 264.159 108.666 C 257.830 107.024,250.230 108.038,242.930 111.499 L 240.659 112.576 237.252 111.125 C 217.642 102.772,204.471 99.499,183.873 97.858 C 162.286 96.137,132.620 99.938,95.514 109.176 C 79.504 113.163,73.765 113.090,69.226 108.844 C 61.352 101.479,73.918 90.316,102.896 78.934 C 112.209 75.276,121.462 72.496,139.920 67.812 C 165.806 61.242,180.994 56.010,199.091 47.428 C 204.071 45.067,211.960 41.027,214.386 39.597 C 215.302 39.056,216.090 38.614,216.136 38.614 C 216.788 38.614,223.761 33.692,227.290 30.741 C 236.786 22.800,243.044 12.019,243.044 3.598 C 243.044 0.587,241.112 -0.740,238.788 0.677 M84.398 51.404 C 84.461 51.567,84.248 52.768,83.926 54.073 C 83.604 55.378,83.280 57.212,83.207 58.149 C 82.983 61.017,82.973 61.018,77.456 58.516 C 75.145 57.468,72.845 56.476,72.345 56.312 C 69.813 55.481,70.441 54.871,75.752 53.001 C 80.372 51.374,84.121 50.682,84.398 51.404 M66.792 60.093 C 67.081 60.442,66.771 61.821,65.045 67.859 C 64.547 69.599,64.272 69.596,60.513 67.803 C 58.776 66.974,56.624 65.991,55.733 65.619 C 54.075 64.927,53.262 64.291,53.422 63.811 C 53.621 63.213,61.312 60.571,63.602 60.314 C 64.290 60.237,65.006 60.078,65.192 59.960 C 65.707 59.634,66.463 59.697,66.792 60.093 M51.537 70.271 C 51.732 70.507,51.654 71.164,51.213 72.993 C 50.894 74.320,50.560 76.195,50.472 77.160 C 50.222 79.909,50.021 79.944,45.883 77.954 C 44.072 77.083,41.812 76.049,40.861 75.656 C 38.813 74.810,37.867 73.991,38.536 73.642 C 42.325 71.669,50.860 69.455,51.537 70.271 M62.448 81.184 C 63.097 81.966,60.395 90.403,59.496 90.403 C 59.410 90.403,57.871 89.700,56.076 88.841 C 54.280 87.982,52.011 86.947,51.032 86.541 C 47.948 85.261,48.309 84.832,54.060 82.943 C 60.546 80.813,61.904 80.529,62.448 81.184 M39.255 84.108 C 39.487 84.387,39.002 86.421,37.466 91.596 C 36.878 93.577,36.643 93.585,32.778 91.742 C 31.178 90.979,29.159 90.056,28.291 89.692 C 26.506 88.942,25.894 88.477,25.894 87.869 C 25.894 87.639,25.928 87.450,25.969 87.450 C 26.009 87.450,27.415 86.932,29.092 86.298 C 34.387 84.296,38.649 83.377,39.255 84.108 M54.088 95.855 C 52.768 101.107,51.640 104.554,51.184 104.727 C 50.790 104.877,49.852 104.534,46.862 103.147 C 44.762 102.173,42.456 101.137,41.738 100.845 C 39.488 99.930,39.946 99.317,44.018 97.794 C 49.403 95.780,54.346 94.828,54.088 95.855 M34.621 99.854 C 35.100 100.038,35.077 100.421,34.426 103.113 C 34.121 104.372,33.801 106.142,33.715 107.046 C 33.464 109.687,33.241 109.754,30.036 108.149 C 28.820 107.540,26.599 106.511,25.099 105.862 C 20.922 104.054,20.812 103.821,23.623 102.712 C 28.762 100.683,33.544 99.441,34.621 99.854 M315.793 100.638 C 317.287 101.053,319.833 104.125,319.194 104.741 C 319.028 104.901,311.532 106.345,310.619 106.393 C 309.976 106.427,310.062 105.341,310.834 103.654 C 312.022 101.059,313.679 100.051,315.793 100.638 M293.519 103.801 C 295.799 104.506,298.201 106.231,299.779 108.297 C 300.515 109.261,301.018 109.076,294.100 110.384 C 286.424 111.836,286.268 111.832,285.405 110.162 C 283.448 106.379,288.653 102.298,293.519 103.801 M164.232 106.653 C 164.534 107.017,164.132 108.854,162.727 113.525 C 161.948 116.114,161.734 116.193,159.093 114.870 C 157.980 114.312,155.741 113.272,154.117 112.557 C 149.775 110.648,149.790 110.430,154.372 108.755 C 160.321 106.580,163.593 105.882,164.232 106.653 M183.531 107.041 C 183.531 107.285,182.553 110.918,181.361 115.102 C 180.867 116.838,180.609 116.832,176.715 114.988 C 174.905 114.130,172.709 113.137,171.834 112.779 C 168.797 111.538,168.977 111.106,173.190 109.524 C 178.408 107.564,183.533 106.334,183.531 107.041 M145.242 107.967 C 145.633 108.253,145.596 108.474,144.500 112.437 C 142.985 117.917,143.083 117.822,140.367 116.420 C 139.219 115.827,136.886 114.741,135.182 114.008 C 130.986 112.203,130.989 111.896,135.228 110.293 C 140.731 108.213,144.410 107.358,145.242 107.967 M202.089 110.314 C 202.169 110.521,202.013 111.597,201.742 112.706 C 201.472 113.814,201.131 115.698,200.984 116.892 C 200.616 119.885,200.567 119.898,196.650 118.034 C 194.994 117.246,192.694 116.203,191.539 115.715 C 188.443 114.409,188.619 114.009,193.027 112.342 C 197.978 110.470,201.820 109.611,202.089 110.314 M56.427 110.757 C 56.967 110.964,56.883 111.539,55.688 115.823 C 54.435 120.313,54.401 120.358,52.558 119.946 C 51.163 119.634,44.045 116.141,43.314 115.409 C 42.219 114.314,54.418 109.986,56.427 110.757 M125.478 111.438 C 125.951 111.620,125.932 112.223,125.382 114.373 C 125.131 115.353,124.806 117.054,124.660 118.153 L 124.394 120.152 123.455 120.511 L 122.517 120.869 119.578 119.473 C 117.961 118.706,115.769 117.717,114.708 117.276 C 112.304 116.278,112.146 116.159,112.460 115.571 C 113.124 114.332,124.011 110.875,125.478 111.438 M36.905 115.243 C 37.333 115.556,37.136 116.475,35.062 123.850 C 34.795 124.796,33.961 124.587,28.896 122.306 C 21.953 119.178,21.958 119.289,28.620 116.931 C 32.971 115.390,36.206 114.732,36.905 115.243 M106.166 116.074 C 106.285 116.191,106.164 116.752,105.872 117.430 C 105.087 119.254,104.495 121.355,104.278 123.080 C 103.951 125.686,103.870 125.698,99.688 123.718 C 98.017 122.927,95.793 121.931,94.747 121.504 C 91.859 120.326,92.021 119.800,95.715 118.373 C 101.227 116.245,105.401 115.327,106.166 116.074 M219.819 116.332 C 219.977 116.490,220.006 116.738,219.892 116.957 C 219.787 117.156,219.214 119.108,218.618 121.295 C 217.143 126.705,217.482 126.510,213.142 124.455 C 211.536 123.694,209.353 122.713,208.291 122.274 C 207.229 121.836,206.268 121.390,206.156 121.284 C 205.251 120.428,210.143 118.369,217.376 116.559 C 219.540 116.018,219.508 116.021,219.819 116.332 M86.397 121.863 C 86.700 122.167,86.677 122.424,86.184 124.192 C 85.880 125.284,85.365 127.149,85.039 128.336 C 84.142 131.609,84.192 131.592,80.689 129.849 C 79.348 129.182,77.101 128.141,75.696 127.536 C 72.053 125.967,72.169 125.614,76.888 123.903 C 82.237 121.963,85.744 121.211,86.397 121.863 M160.818 123.595 C 160.818 123.688,160.561 124.819,160.246 126.107 C 159.932 127.396,159.611 129.216,159.534 130.153 C 159.300 132.973,159.140 132.997,154.662 130.874 C 152.863 130.021,150.676 129.032,149.801 128.675 C 146.676 127.402,147.129 126.936,153.668 124.703 C 155.045 124.232,156.987 123.669,157.984 123.452 C 158.980 123.235,159.896 122.964,160.020 122.849 C 160.233 122.651,160.818 123.198,160.818 123.595 M67.542 123.680 C 67.523 123.930,67.206 124.850,66.836 125.724 C 66.158 127.329,65.645 129.643,65.645 131.092 C 65.645 132.761,64.824 132.811,61.836 131.326 C 60.620 130.721,58.450 129.725,57.013 129.112 C 52.901 127.358,53.029 127.086,58.944 125.006 C 64.142 123.178,67.618 122.641,67.542 123.680 M179.671 124.120 C 179.671 124.424,179.414 125.727,179.101 127.016 C 178.788 128.304,178.467 130.074,178.389 130.948 C 178.144 133.673,178.053 133.679,172.961 131.324 C 170.842 130.343,168.623 129.347,168.030 129.109 C 165.419 128.062,168.286 126.384,176.150 124.356 C 179.737 123.431,179.671 123.435,179.671 124.120 M140.841 124.826 C 141.207 125.157,141.198 125.301,140.696 127.277 C 140.403 128.431,140.059 130.292,139.932 131.411 C 139.716 133.315,139.405 134.015,138.776 134.015 C 138.694 134.015,137.154 133.315,135.355 132.459 C 133.556 131.603,131.241 130.561,130.210 130.143 C 128.253 129.349,127.951 128.969,128.734 128.288 C 129.497 127.623,135.087 125.674,138.898 124.744 C 140.203 124.425,140.407 124.434,140.841 124.826 M198.368 127.882 C 198.326 128.929,196.928 134.282,196.419 135.351 C 195.967 136.299,195.196 136.217,192.679 134.954 C 191.440 134.332,189.309 133.348,187.944 132.768 C 184.936 131.488,184.725 131.320,185.282 130.642 C 186.135 129.605,195.178 126.714,197.274 126.809 L 198.410 126.860 198.368 127.882 M121.303 129.141 C 121.583 129.478,121.028 131.971,119.549 137.022 C 119.080 138.627,118.771 138.612,114.932 136.794 C 113.122 135.936,110.926 134.942,110.051 134.585 C 107.114 133.385,107.242 132.913,110.885 131.511 C 116.569 129.324,120.679 128.389,121.303 129.141 M46.494 130.628 C 46.714 130.848,45.800 134.916,44.771 138.296 C 44.261 139.970,43.654 140.067,41.278 138.858 C 40.375 138.398,38.206 137.387,36.457 136.610 C 32.105 134.678,32.084 134.453,36.116 132.923 C 41.600 130.841,45.782 129.916,46.494 130.628 M101.407 134.412 C 100.984 135.370,100.152 139.016,99.921 140.915 C 99.555 143.927,99.670 143.913,94.576 141.547 C 92.468 140.568,90.248 139.579,89.643 139.350 C 87.824 138.662,87.970 137.906,90.089 137.040 C 95.824 134.696,101.904 133.285,101.407 134.412 M82.138 139.373 C 82.234 139.758,81.902 141.379,81.177 144.054 C 79.749 149.323,80.117 149.143,75.419 146.877 C 73.479 145.941,71.339 144.960,70.665 144.696 C 68.630 143.900,68.574 143.854,68.866 143.213 C 69.239 142.395,74.877 140.278,79.444 139.240 C 81.874 138.687,81.967 138.692,82.138 139.373 M156.651 142.715 C 156.306 144.129,155.972 145.893,155.908 146.635 C 155.646 149.691,155.545 149.720,151.616 147.855 C 149.993 147.084,147.848 146.101,146.849 145.670 C 144.662 144.727,144.167 144.336,144.463 143.784 C 144.737 143.271,150.121 141.224,153.152 140.480 C 154.432 140.166,155.735 139.825,156.048 139.723 C 157.242 139.333,157.348 139.858,156.651 142.715 M63.145 140.033 C 63.374 140.309,63.254 141.003,62.505 143.724 C 61.999 145.567,61.472 147.509,61.335 148.039 C 60.959 149.491,60.545 149.477,57.214 147.903 C 55.641 147.159,53.444 146.168,52.333 145.699 C 49.829 144.643,49.601 144.460,50.001 143.819 C 50.495 143.029,56.725 140.821,61.215 139.845 C 62.170 139.637,62.874 139.706,63.145 140.033 M176.036 140.815 C 176.036 141.181,175.780 142.536,175.467 143.824 C 175.154 145.113,174.833 146.882,174.755 147.757 C 174.519 150.381,174.350 150.417,170.635 148.646 C 169.171 147.948,167.002 146.965,165.815 146.462 C 163.041 145.286,162.863 145.123,163.575 144.411 C 164.238 143.748,169.056 141.941,172.247 141.158 C 173.519 140.845,174.815 140.501,175.128 140.393 C 176.004 140.089,176.036 140.104,176.036 140.815 M137.116 141.617 L 137.593 141.952 136.469 145.987 C 134.964 151.387,135.126 151.271,131.569 149.489 C 130.353 148.880,128.234 147.897,126.860 147.305 C 125.486 146.712,124.267 146.141,124.153 146.034 C 122.703 144.690,135.351 140.381,137.116 141.617 M117.792 145.904 C 117.856 146.072,117.705 146.728,117.455 147.361 C 117.206 147.994,116.729 149.824,116.395 151.428 C 115.508 155.696,115.650 155.656,110.370 153.127 C 108.321 152.146,106.155 151.160,105.558 150.936 C 103.411 150.132,103.921 149.475,107.805 148.035 C 113.591 145.891,117.469 145.064,117.792 145.904 M97.720 151.402 C 97.789 151.470,97.659 152.122,97.432 152.851 C 96.901 154.559,96.392 157.118,96.199 159.058 C 95.975 161.295,95.852 161.293,90.798 158.941 C 88.519 157.880,86.259 156.873,85.775 156.702 C 84.782 156.350,84.584 156.053,84.923 155.420 C 85.490 154.361,97.050 150.731,97.720 151.402 " stroke="none" fill-rule="evenodd" class="svg-elem-2">
</path>
<path id="path2" d="M277.002 130.625 C 274.919 130.909,272.716 131.521,269.705 132.652 C 263.948 134.814,260.160 135.079,254.720 133.697 C 252.223 133.063,252.219 133.065,252.422 135.035 C 252.984 140.481,257.445 142.450,265.500 140.808 C 278.942 138.068,286.363 140.367,294.156 149.688 C 297.003 153.092,301.103 156.837,305.508 160.056 C 308.398 162.168,310.051 162.218,315.510 160.360 C 320.614 158.623,321.016 158.768,323.044 163.086 C 325.440 168.190,326.096 168.445,329.882 165.750 C 334.834 162.223,336.232 162.266,337.904 165.994 C 340.142 170.984,340.245 171.130,341.500 171.130 C 342.066 171.130,342.905 170.705,344.758 169.480 C 349.618 166.266,351.236 166.558,353.085 170.982 C 355.311 176.307,356.073 176.587,360.104 173.562 C 364.275 170.432,364.639 170.420,367.635 173.313 C 372.633 178.140,379.029 178.581,380.129 174.174 C 381.184 169.947,374.236 166.726,345.940 158.324 C 329.959 153.579,324.743 151.378,320.679 147.664 C 318.121 145.326,316.956 140.602,318.938 140.602 C 319.575 140.602,319.456 140.272,318.577 139.601 C 316.343 137.897,314.786 135.813,313.999 133.475 C 313.405 131.706,313.198 131.502,312.568 132.062 C 311.464 133.043,305.398 134.308,301.760 134.315 C 298.488 134.322,297.369 134.123,291.766 132.537 C 285.087 130.646,280.861 130.098,277.002 130.625 " stroke="none" fill="#FFFFFF" fill-rule="evenodd" class="svg-elem-3">
</path>
<path id="path3" d="" stroke="none" fill="#54896e" fill-rule="evenodd" class="svg-elem-4">
</path><path id="path4" d="M50.251 77.456 C 50.251 77.893,50.298 78.072,50.355 77.853 C 50.412 77.635,50.412 77.277,50.355 77.058 C 50.298 76.840,50.251 77.019,50.251 77.456 M61.158 81.020 C 61.377 81.077,61.735 81.077,61.953 81.020 C 62.172 80.963,61.993 80.916,61.556 80.916 C 61.119 80.916,60.940 80.963,61.158 81.020 M52.641 95.561 C 52.922 95.615,53.382 95.615,53.663 95.561 C 53.944 95.507,53.714 95.462,53.152 95.462 C 52.589 95.462,52.359 95.507,52.641 95.561 M290.690 103.511 C 290.972 103.565,291.381 103.563,291.598 103.506 C 291.816 103.450,291.584 103.405,291.085 103.408 C 290.585 103.410,290.407 103.457,290.690 103.511 M162.919 106.460 C 163.137 106.517,163.495 106.517,163.714 106.460 C 163.932 106.403,163.754 106.356,163.316 106.356 C 162.879 106.356,162.700 106.403,162.919 106.460 M287.166 111.457 C 287.385 111.514,287.743 111.514,287.961 111.457 C 288.180 111.400,288.001 111.353,287.564 111.353 C 287.127 111.353,286.948 111.400,287.166 111.457 M155.646 147.416 C 155.646 147.853,155.693 148.032,155.750 147.814 C 155.807 147.595,155.807 147.237,155.750 147.019 C 155.693 146.800,155.646 146.979,155.646 147.416 " stroke="none" fill="#749c8c" fill-rule="evenodd" class="svg-elem-5">
</path></g>
</svg>